<svg width="24" height="24" viewBox="0 0 24 24" fill="none" xmlns="http://www.w3.org/2000/svg">
<path d="M22.7491 7.47789C22.7491 7.01083 22.5672 6.5717 22.2369 6.24151L19.9172 3.92176C19.5869 3.59148 19.1478 3.4096 18.6807 3.4096C18.2137 3.4096 17.7745 3.59148 17.4443 3.92176L16.253 5.11304L15.9328 4.79185V3.98438C15.9328 3.26293 15.4042 2.66283 14.714 2.55043V1.10367C14.714 0.495142 14.2189 0 13.6103 0H10.3803C9.7717 0 9.27651 0.495142 9.27651 1.10367V2.55343C8.59467 2.67282 8.07464 3.26883 8.07464 3.98438V4.79148L7.74956 5.11656L6.55471 3.92171C6.22443 3.59148 5.7853 3.40955 5.31824 3.40955C4.85118 3.40955 4.4121 3.59143 4.08182 3.92171L1.76211 6.24142C1.08036 6.92317 1.08036 8.03247 1.76211 8.71427L2.95691 9.90907L2.6638 10.2022C2.51919 10.3468 2.48506 10.5684 2.57933 10.7499L3.10564 11.7622L1.83326 14.0119C1.75878 14.1436 1.7524 14.3031 1.8162 14.4403L4.34746 19.8851C4.42438 20.0505 4.59018 20.1562 4.77252 20.1562H6.54219V21C6.54219 21.2589 6.7521 21.4687 7.01095 21.4687H7.72963V22.2656C7.72963 23.222 8.50767 24 9.46401 24H14.5265C15.4829 24 16.2609 23.222 16.2609 22.2656V21.4687H16.9796C17.2385 21.4687 17.4484 21.2589 17.4484 21V20.1562H19.2181C19.4005 20.1562 19.5663 20.0505 19.6431 19.8851L22.1744 14.4403C22.2381 14.3031 22.2318 14.1436 22.1573 14.0119L20.8849 11.7623L21.4112 10.75C21.5054 10.5687 21.4714 10.3474 21.3273 10.2028L21.0383 9.91296L22.2369 8.71436C22.5672 8.38408 22.7491 7.94495 22.7491 7.47789ZM10.214 1.10367C10.214 1.01203 10.2886 0.937502 10.3802 0.937502H13.6103C13.7019 0.937502 13.7765 1.01203 13.7765 1.10367V2.53126H10.214V1.10367ZM9.01214 3.98438C9.01214 3.70009 9.24342 3.46876 9.52776 3.46876H14.4797C14.764 3.46876 14.9953 3.70009 14.9953 3.98438V4.51688H9.01214V3.98438ZM2.42506 8.05145C2.10884 7.73519 2.10884 7.22064 2.42506 6.90442L4.74477 4.58467C4.89796 4.43148 5.10163 4.3471 5.31824 4.3471C5.5349 4.3471 5.73862 4.43148 5.89176 4.58467L7.0866 5.77946L3.61986 9.24621L2.42506 8.05145ZM6.54215 19.2188H5.07149L2.76795 14.2637L3.62155 12.7546L6.54219 18.3724V19.2188H6.54215ZM15.3234 22.2657C15.3234 22.7051 14.9659 23.0625 14.5265 23.0625H9.46401C9.02461 23.0625 8.66714 22.7051 8.66714 22.2657V21.4688H15.3234V22.2657ZM16.5638 18.0416C16.5291 18.1084 16.5109 18.1826 16.5109 18.2578V20.5313H15.7922H14.4539C15.2251 19.8349 15.6488 18.8505 15.6574 17.8434C15.6578 17.835 15.6587 17.8268 15.6587 17.8183V14.3086C15.6587 14.0497 15.4487 13.8399 15.1899 13.8399C14.9311 13.8399 14.7211 14.0497 14.7211 14.3086V15.3749C14.0344 14.6135 13.0439 14.1615 11.9993 14.1615C11.9979 14.1615 11.9962 14.1615 11.9947 14.1615C11.7358 14.1619 11.5262 14.372 11.5265 14.6309C11.5268 14.8895 11.7366 15.099 11.9953 15.099C11.9966 15.0991 11.998 15.099 11.9994 15.099C12.9582 15.099 13.856 15.6108 14.3432 16.4353C15.1058 17.726 14.6761 19.3964 13.3853 20.159C12.9997 20.3869 12.5801 20.5075 12.1611 20.5312H11.8398C10.9688 20.4778 10.1381 20.0075 9.66169 19.2012C9.21239 18.4407 9.16115 17.5051 9.52467 16.6985C9.63103 16.4625 9.52589 16.1849 9.28987 16.0786C9.05404 15.9722 8.77626 16.0773 8.6699 16.3133C8.64243 16.3743 8.61698 16.4359 8.59298 16.4979L7.27274 13.0434C7.39012 13.0653 7.51092 13.0773 7.63457 13.0773C8.72015 13.0773 9.60333 12.1941 9.60333 11.1086C9.60333 10.4839 9.31064 9.92679 8.85557 9.56585L12.4695 8.24861C12.4674 8.28189 12.466 8.31536 12.466 8.34916C12.466 9.22938 13.1821 9.94549 14.0624 9.94549C14.2972 9.94549 14.5202 9.89411 14.7212 9.80261V10.6718C14.7212 10.9307 14.9311 11.1406 15.1899 11.1406C15.4488 11.1406 15.6587 10.9307 15.6587 10.6718V8.3492C15.6587 7.46898 14.9426 6.75287 14.0624 6.75287C13.7844 6.75287 13.5229 6.82445 13.2951 6.94989L6.9877 9.24892C6.98488 9.24996 6.98235 9.25127 6.97959 9.25235C6.2151 9.52291 5.66586 10.2527 5.66586 11.1086C5.66586 11.3883 5.72483 11.6543 5.83044 11.8954L8.52112 18.9359C8.52201 18.9381 8.52309 18.9403 8.52403 18.9426C8.60601 19.1968 8.71603 19.4437 8.85459 19.6782C9.04739 20.0045 9.28336 20.2898 9.55097 20.5313H8.19843H7.4797V18.2578C7.4797 18.1826 7.46156 18.1084 7.42687 18.0416L3.56961 10.6223L8.73759 5.45439H15.2695L20.4213 10.6218L16.5638 18.0416ZM6.60341 11.1086C6.60341 10.54 7.06602 10.0774 7.63467 10.0774C8.20331 10.0774 8.66592 10.54 8.66592 11.1086C8.66592 11.6773 8.20331 12.1399 7.63467 12.1399C7.06598 12.1399 6.60341 11.6773 6.60341 11.1086ZM13.4036 8.3493C13.4036 7.98602 13.6991 7.69047 14.0624 7.69047C14.4257 7.69047 14.7212 7.98602 14.7212 8.3493C14.7212 8.71258 14.4257 9.00813 14.0624 9.00813C13.6991 9.00813 13.4036 8.71258 13.4036 8.3493ZM21.2227 14.2637L18.9191 19.2188H17.4484V18.3724L20.3691 12.7546L21.2227 14.2637ZM21.574 8.05141L20.3764 9.24897L16.915 5.77698L18.1073 4.58467C18.2605 4.43148 18.4642 4.3471 18.6808 4.3471C18.8974 4.3471 19.1012 4.43148 19.2543 4.58467L21.5741 6.90442C21.7272 7.05761 21.8116 7.26128 21.8116 7.47789C21.8116 7.6945 21.7272 7.89822 21.574 8.05141Z" fill="#8E8E8E"/>
<path d="M10.7913 14.8339C10.6605 14.6105 10.3734 14.5354 10.1499 14.6661L10.1443 14.6694C9.92083 14.8002 9.84578 15.0874 9.97656 15.3108C10.0637 15.4598 10.2205 15.5428 10.3816 15.5428C10.4619 15.5428 10.5435 15.5221 10.6179 15.4785C10.6181 15.4784 10.6228 15.4756 10.6235 15.4752C10.847 15.3444 10.9221 15.0573 10.7913 14.8339Z" fill="#8E8E8E"/>
<path d="M12.0025 16.037C11.0204 16.037 10.2213 16.8361 10.2213 17.8183C10.2213 18.8005 11.0204 19.5996 12.0025 19.5996C12.9847 19.5996 13.7838 18.8005 13.7838 17.8183C13.7838 16.8361 12.9848 16.037 12.0025 16.037ZM12.0025 18.6621C11.5373 18.6621 11.1588 18.2835 11.1588 17.8183C11.1588 17.3531 11.5373 16.9746 12.0025 16.9746C12.4678 16.9746 12.8463 17.3531 12.8463 17.8183C12.8463 18.2835 12.4678 18.6621 12.0025 18.6621Z" fill="#8E8E8E"/>
<path d="M7.63937 10.673H7.63421C7.63351 10.673 7.63285 10.673 7.6321 10.673C7.37419 10.673 7.16452 10.8815 7.1634 11.1397C7.16227 11.3985 7.37119 11.6094 7.63008 11.6105H7.63524C7.63594 11.6105 7.6366 11.6105 7.63735 11.6105C7.89526 11.6105 8.10493 11.402 8.10605 11.1438C8.10713 10.8849 7.89821 10.6741 7.63937 10.673Z" fill="#8E8E8E"/>
<path d="M15.5213 12.1842C15.4341 12.0971 15.3132 12.0469 15.1899 12.0469C15.0666 12.0469 14.9457 12.0971 14.8585 12.1842C14.7713 12.2714 14.7211 12.3924 14.7211 12.5157C14.7211 12.6389 14.7713 12.7599 14.8585 12.8471C14.9457 12.9343 15.0666 12.9844 15.1899 12.9844C15.3132 12.9844 15.4341 12.9343 15.5213 12.8471C15.6085 12.7599 15.6586 12.6389 15.6586 12.5157C15.6586 12.3924 15.6085 12.2714 15.5213 12.1842Z" fill="#8E8E8E"/>
<path d="M20.5439 7.00184L20.5108 6.9687C20.3279 6.78542 20.0312 6.785 19.8478 6.96776C19.6645 7.15058 19.6641 7.44739 19.8469 7.63072L19.88 7.6639C19.9716 7.75569 20.0918 7.80162 20.2119 7.80162C20.3317 7.80162 20.4514 7.75601 20.5429 7.6648C20.7262 7.48198 20.7267 7.18517 20.5439 7.00184Z" fill="#8E8E8E"/>
<path d="M19.187 5.64079L19.1539 5.60765C18.971 5.42436 18.6743 5.42394 18.4909 5.60671C18.3077 5.78952 18.3072 6.08634 18.49 6.26967L18.5231 6.30286C18.6147 6.39464 18.7349 6.44058 18.855 6.44058C18.9748 6.44058 19.0945 6.39497 19.1861 6.30375C19.3694 6.12093 19.3697 5.82412 19.187 5.64079Z" fill="#8E8E8E"/>
<path d="M5.50822 5.60678C5.32489 5.42397 5.02808 5.42439 4.84527 5.60767L4.81217 5.64086C4.6294 5.82419 4.62978 6.121 4.81311 6.30381C4.90461 6.39503 5.02438 6.44064 5.14414 6.44064C5.26428 6.44064 5.38452 6.3947 5.47606 6.30292L5.50916 6.26974C5.69192 6.08641 5.69155 5.78959 5.50822 5.60678Z" fill="#8E8E8E"/>
<path d="M4.15141 6.9678C3.96804 6.78499 3.67122 6.78541 3.48845 6.96869L3.45536 7.00188C3.27259 7.18521 3.27297 7.48202 3.4563 7.66484C3.5478 7.75606 3.66757 7.80166 3.78733 7.80166C3.90747 7.80166 4.02771 7.75573 4.11926 7.66395L4.15235 7.63076C4.33512 7.44743 4.33474 7.15062 4.15141 6.9678Z" fill="#8E8E8E"/>
</svg>
