<svg width="24" height="24" viewBox="0 0 24 24" fill="none" xmlns="http://www.w3.org/2000/svg">
<g clip-path="url(#clip0)">
<path d="M22.5 16.6381V7.36185C23.3711 7.05121 24 6.22651 24 5.25C24 4.00927 22.9907 3 21.75 3C20.5093 3 19.5 4.00927 19.5 5.25C19.5 6.22651 20.1289 7.05121 21 7.36185V11.25H12.75V7.36185C13.6211 7.05121 14.25 6.22651 14.25 5.25C14.25 4.00927 13.2407 3 12 3C10.7593 3 9.75 4.00927 9.75 5.25C9.75 6.22651 10.3789 7.05121 11.25 7.36185V11.25H2.25C1.83543 11.25 1.49998 11.5855 1.49998 12V16.6382C0.628861 16.9488 0 17.7735 0 18.75C0 19.9907 1.00927 21 2.25 21C3.49073 21 4.49999 19.9907 4.49999 18.75C4.49999 17.7735 3.87113 16.9488 3.00001 16.6381V12.75H11.25V16.6381C10.3789 16.9488 9.75005 17.7735 9.75005 18.75C9.75005 19.9907 10.7593 21 12 21C13.2408 21 14.25 19.9907 14.25 18.75C14.25 17.7735 13.6212 16.9488 12.7501 16.6381V12.75H21.0001V16.6381C20.129 16.9488 19.5001 17.7735 19.5001 18.75C19.5001 19.9907 20.5094 21 21.7501 21C22.9908 21 24.0001 19.9907 24.0001 18.75C24 17.7735 23.3711 16.9488 22.5 16.6381ZM12 4.49998C12.4138 4.49998 12.75 4.83617 12.75 5.25C12.75 5.66382 12.4138 6.00001 12 6.00001C11.5862 6.00001 11.25 5.66382 11.25 5.25C11.25 4.83617 11.5862 4.49998 12 4.49998ZM2.25 19.5C1.83617 19.5 1.49998 19.1638 1.49998 18.75C1.49998 18.3362 1.83617 18 2.25 18C2.66382 18 3.00001 18.3362 3.00001 18.75C3.00001 19.1638 2.66382 19.5 2.25 19.5ZM12 19.5C11.5862 19.5 11.25 19.1638 11.25 18.75C11.25 18.3362 11.5862 18 12 18C12.4138 18 12.75 18.3362 12.75 18.75C12.75 19.1638 12.4138 19.5 12 19.5ZM21.75 4.49998C22.1638 4.49998 22.5 4.83617 22.5 5.25C22.5 5.66382 22.1638 6.00001 21.75 6.00001C21.3362 6.00001 21 5.66382 21 5.25C21 4.83617 21.3362 4.49998 21.75 4.49998ZM21.75 19.5C21.3362 19.5 21 19.1638 21 18.75C21 18.3362 21.3362 18 21.75 18C22.1638 18 22.5 18.3362 22.5 18.75C22.5 19.1638 22.1638 19.5 21.75 19.5Z" fill="#8E8E8E"/>
</g>
<defs>
<clipPath id="clip0">
<rect width="24" height="24" fill="white"/>
</clipPath>
</defs>
</svg>
