<svg width="24" height="24" viewBox="0 0 24 24" fill="none" xmlns="http://www.w3.org/2000/svg">
<path d="M22.5938 2.15625H10.5469C8.74017 2.15625 7.00305 2.60815 5.46368 3.4574C5.14581 2.69421 4.39252 2.15625 3.51562 2.15625C2.35254 2.15625 1.40625 3.10254 1.40625 4.26562C1.40625 5.00757 1.79169 5.66089 2.3725 6.03699C0.835693 7.91455 0 10.2446 0 12.7031C0 15.1617 0.835693 17.4917 2.3725 19.3693C1.79169 19.7454 1.40625 20.3987 1.40625 21.1406C1.40625 22.3037 2.35254 23.25 3.51562 23.25C4.39252 23.25 5.14581 22.712 5.46368 21.9489C7.00305 22.7981 8.74017 23.25 10.5469 23.25C12.3536 23.25 14.0907 22.7981 15.6301 21.9489C15.9479 22.712 16.7012 23.25 17.5781 23.25C18.7412 23.25 19.6875 22.3037 19.6875 21.1406C19.6875 20.3987 19.3021 19.7454 18.7213 19.3693C20.2581 17.4917 21.0938 15.1617 21.0938 12.7031C21.0938 11.4891 20.8916 10.311 20.4933 9.1875H22.5938V10.5938H24V0.75H22.5938V2.15625ZM3.51562 3.5625C3.90271 3.5625 4.21783 3.87708 4.21857 4.26398C3.93256 4.47949 3.65607 4.71057 3.39001 4.95685C3.06207 4.89752 2.8125 4.61041 2.8125 4.26562C2.8125 3.87799 3.12799 3.5625 3.51562 3.5625ZM3.51562 21.8438C3.12799 21.8438 2.8125 21.5283 2.8125 21.1406C2.8125 20.7958 3.06207 20.5087 3.39001 20.4494C3.65607 20.6957 3.93256 20.9268 4.21857 21.1423C4.21783 21.5292 3.90271 21.8438 3.51562 21.8438ZM17.5781 21.8438C17.191 21.8438 16.8759 21.5292 16.8752 21.1423C17.1612 20.9268 17.4377 20.6957 17.7037 20.4494C18.0317 20.5087 18.2812 20.7958 18.2812 21.1406C18.2812 21.5283 17.9658 21.8438 17.5781 21.8438ZM10.1124 7.78125L10.1021 7.80157C7.59595 8.02716 5.625 10.1391 5.625 12.7031C5.625 15.4171 7.83289 17.625 10.5469 17.625C13.2609 17.625 15.4688 15.4171 15.4688 12.7031C15.4688 11.3271 14.9009 10.0816 13.9876 9.1875H18.9866C19.4515 10.2999 19.6875 11.4803 19.6875 12.7031C19.6875 17.7433 15.587 21.8438 10.5469 21.8438C5.50671 21.8438 1.40625 17.7433 1.40625 12.7031C1.40625 7.66296 5.50671 3.5625 10.5469 3.5625H22.5938V7.78125H10.1124ZM14.0625 12.7031C14.0625 12.897 14.046 13.0869 14.0158 13.2722C13.6441 12.7837 13.1521 12.4041 12.588 12.1703C12.531 11.9528 12.44 11.749 12.3212 11.5646C12.5596 11.45 12.8198 11.3811 13.0889 11.3648L13.7802 11.3234C13.9616 11.7473 14.0625 12.2137 14.0625 12.7031ZM8.00482 14.0414L7.31378 14.0828C7.13214 13.6589 7.03125 13.1926 7.03125 12.7031C7.03125 12.5092 7.04773 12.3193 7.07794 12.134C7.44965 12.6226 7.94165 13.0021 8.5058 13.236C8.56274 13.4535 8.65375 13.6573 8.77258 13.8417C8.53418 13.9563 8.27399 14.0251 8.00482 14.0414ZM9.84375 12.7031C9.84375 12.3155 10.1592 12 10.5469 12C10.9345 12 11.25 12.3155 11.25 12.7031C11.25 13.0908 10.9345 13.4062 10.5469 13.4062C10.1592 13.4062 9.84375 13.0908 9.84375 12.7031ZM11.1055 10.6694C10.9274 10.6205 10.7402 10.5938 10.5469 10.5938C10.5137 10.5938 10.4808 10.5947 10.4482 10.5963C10.4681 10.3328 10.5385 10.0734 10.6589 9.83258L10.9684 9.21368C11.6477 9.29535 12.2684 9.57056 12.7723 9.98383C12.1639 10.0615 11.5897 10.2979 11.1055 10.6694ZM9.065 11.2037C8.90826 11.3586 8.77588 11.5382 8.67334 11.7356C8.4549 11.5865 8.26538 11.3958 8.11688 11.1709L7.73602 10.5941C8.13373 10.0655 8.67682 9.65277 9.30524 9.41455C9.06775 9.98126 8.98517 10.5976 9.065 11.2037ZM9.98822 14.7369C10.1664 14.7858 10.3535 14.8125 10.5469 14.8125C10.58 14.8125 10.613 14.8116 10.6456 14.8099C10.6256 15.0734 10.5553 15.3329 10.4348 15.5737L10.1254 16.1926C9.44604 16.1109 8.82532 15.8357 8.32141 15.4224C8.92987 15.3448 9.50409 15.1084 9.98822 14.7369ZM12.0287 14.2026C12.1855 14.0477 12.3179 13.868 12.4204 13.6707C12.6389 13.8197 12.8284 14.0105 12.9769 14.2354L13.3577 14.8121C12.96 15.3408 12.4169 15.7535 11.7885 15.9917C12.026 15.425 12.1086 14.8087 12.0287 14.2026Z" fill="#8E8E8E"/>
</svg>
