<?xml version="1.0" encoding="utf-8"?>
<!-- Generator: Adobe Illustrator 19.0.0, SVG Export Plug-In . SVG Version: 6.00 Build 0)  -->
<svg version="1.1" id="Layer_1" xmlns="http://www.w3.org/2000/svg" xmlns:xlink="http://www.w3.org/1999/xlink" x="0px" y="0px"
	 viewBox="0 0 16 16" style="enable-background:new 0 0 16 16;" xml:space="preserve">
<style type="text/css">
	.st0{fill-rule:evenodd;clip-rule:evenodd;fill:#EC1C24;}
	.st1{fill-rule:evenodd;clip-rule:evenodd;fill:#121212;}
	.st2{fill:#EC1C24;}
	.st3{fill:#121212;}
</style>
<path id="XMLID_167_" class="st0" d="M7.9,13.7c-0.9-0.6-1.7-1.3-2.4-2.1l-0.7,0.1c0.9,1,1.9,1.9,3.2,2.7c1.5-1,2.7-2.1,3.7-3.3
	l-0.8,0.1C9.9,12.2,8.9,13,7.9,13.7"/>
<path id="XMLID_166_" class="st1" d="M2.3,3.7c3.8-2.2,7.7-2,11.5,0c0,0.2,0,0.4,0,0.5c0.2,0,0.4,0.1,0.6,0.1c0-0.3,0-0.6,0-0.9
	C10.2,1.1,6,0.8,1.8,3.4c0,0.8,0,1.5,0.1,2.3C2,5.6,2.2,5.6,2.4,5.5C2.3,4.9,2.3,4.3,2.3,3.7"/>
<path id="XMLID_94_" class="st1" d="M6.7,5.3L6.7,5.3L6.7,5.3L6.7,5.3z M6.9,7L6.1,6l0.6,1.2l3.8-0.3L6.9,7z M13.5,4.9L13.5,4.9
	L13.5,4.9z M13.5,4.9L13.5,4.9L13.5,4.9L13.5,4.9z M13.5,4.9L13.5,4.9 M13.5,4.9L13.5,4.9L13.5,4.9z M13.5,4.9L13.5,4.9 M13.5,4.9
	L13.5,4.9L13.5,4.9L13.5,4.9z M13.5,4.9L13.5,4.9L13.5,4.9L13.5,4.9z M13.5,4.9L13.5,4.9 M13.5,4.9L13.5,4.9L13.5,4.9z M13.4,4.9
	L13.4,4.9L13.4,4.9z M13.4,4.9L13.4,4.9L13.4,4.9z M13.4,4.9L13.4,4.9L13.4,4.9L13.4,4.9 M13.4,4.9L13.4,4.9L13.4,4.9z M13.4,4.9
	L13.4,4.9L13.4,4.9z M13.4,4.9L13.4,4.9L13.4,4.9L13.4,4.9z M13.4,4.9L13.4,4.9 M13.4,4.9L13.4,4.9L13.4,4.9z M13.4,4.9L13.4,4.9
	L13.4,4.9z M13.4,4.9L13.4,4.9L13.4,4.9z M13.4,4.9L13.4,4.9L13.4,4.9z M13.4,4.9L13.4,4.9 M13.4,4.9L13.4,4.9L13.4,4.9z M13.4,4.9
	L13.4,4.9L13.4,4.9L13.4,4.9z M13.4,4.9L13.4,4.9 M13.4,4.9L13.4,4.9L13.4,4.9L13.4,4.9z M13.4,4.9L13.4,4.9L13.4,4.9z M13.4,4.9
	L13.4,4.9L13.4,4.9z M13.4,4.9L13.4,4.9 M13.4,4.9L13.4,4.9L13.4,4.9L13.4,4.9L13.4,4.9 M13.4,4.9L13.4,4.9L13.4,4.9 M13.4,4.9
	L13.4,4.9L13.4,4.9L13.4,4.9L13.4,4.9L13.4,4.9L13.4,4.9L13.4,4.9L13.4,4.9L13.4,4.9 M13.4,4.9L13.4,4.9L13.4,4.9 M13.4,4.9
	L13.4,4.9L13.4,4.9z M13.4,4.9L13.4,4.9L13.4,4.9z M13.4,4.9L13.4,4.9L13.4,4.9z M13.4,4.9L13.4,4.9L13.4,4.9z M13.4,4.9 M13.4,4.9
	L13.4,4.9L13.4,4.9z M13.4,4.9L13.4,4.9L13.4,4.9z M13.4,4.9L13.4,4.9L13.4,4.9z M13.4,4.9L13.4,4.9L13.4,4.9z M13.4,4.9L13.4,4.9
	L13.4,4.9z M13.4,4.9L13.4,4.9L13.4,4.9z M13.4,4.9L13.4,4.9L13.4,4.9z M13.4,4.9L13.4,4.9L13.4,4.9z M13.4,4.9L13.4,4.9L13.4,4.9z
	 M13.4,4.9L13.4,4.9L13.4,4.9z M13.4,4.9L13.4,4.9L13.4,4.9z M13.4,4.9L13.4,4.9L13.4,4.9z M13.4,4.9L13.4,4.9L13.4,4.9z M13.4,4.9
	L13.4,4.9L13.4,4.9z M13.4,4.9 M13.4,4.9L13.4,4.9L13.4,4.9z M13.4,4.9L13.4,4.9L13.4,4.9L13.4,4.9z M13.4,4.9L13.4,4.9L13.4,4.9z
	 M13.4,4.9L13.4,4.9L13.4,4.9L13.4,4.9z M13.4,4.9L13.4,4.9L13.4,4.9z M13.4,4.9L13.4,4.9L13.4,4.9z M13.4,4.9L13.4,4.9L13.4,4.9z
	 M13.4,4.9L13.4,4.9L13.4,4.9L13.4,4.9z M13.4,4.9L13.4,4.9L13.4,4.9z M13.4,4.9L13.4,4.9L13.4,4.9z M13.4,4.9L13.4,4.9L13.4,4.9z
	 M7.5,5.1C7.5,5.1,7.5,5.1,7.5,5.1L7.5,5.1z M7.5,5.1C7.5,5.1,7.5,5.1,7.5,5.1C7.5,5.1,7.5,5.1,7.5,5.1z M7.5,5.1
	C7.5,5.1,7.5,5.1,7.5,5.1C7.5,5.1,7.5,5.1,7.5,5.1z M7.5,5.1C7.5,5.1,7.5,5.1,7.5,5.1C7.5,5.1,7.5,5.1,7.5,5.1z M7.5,5.1
	C7.5,5.1,7.5,5.1,7.5,5.1L7.5,5.1z M4.6,5.3c0.3,0,0.7,0.1,0.9,0.3C5.4,5.5,5.3,5.4,5.2,5.3c0.4,0,0.7-0.1,1.1-0.1
	c0.1,0,0.3,0,0.5,0.1l0,0c0.1,0,0.1,0,0.2,0c0.2,0,0.5,0,0.8,0l0,0c0.9,0,1.8,0,2.7-0.1l0,0c1-0.1,2.1-0.2,3-0.3l0,0l0,0l0,0l0,0
	l0,0l0,0h0l0,0l0,0l0,0l0,0l0,0h0l0,0l0,0l0,0l0,0l0,0l0,0l0,0l0,0l0,0l0,0l0,0h0l0,0l0,0l0,0l0,0l0,0l0,0h0l0,0l0,0l0,0l0,0l0,0
	l0,0l0,0l0,0l0,0l0,0l0,0l0,0l0,0l0,0l0,0l0,0l0,0l0,0l0,0l0,0l0,0l0,0l0,0l0,0l0,0l0,0l0,0l0,0l0,0l0,0l0,0l0,0l0,0l0,0l0,0h0l0,0
	l0,0l0,0l0,0l0,0c0.3,0,0.3-0.2,1.1-0.1c-0.5,0.6,0.5,1.1,0.2,1.9c0-0.2-0.2-0.6-0.9-0.9c0,0,0-0.1,0.1-0.2l0.4,0
	c-0.1-0.1-0.2-0.3-0.3-0.3l-0.9,0.1c-0.1-0.1-0.3-0.1-0.5-0.1c0.3,0.1,0.5,0.2,0.6,0.4c-0.5-0.3-1.3-0.3-1.8-0.1
	c-0.4,0.2-0.8,0.6-0.9,1c0-0.6,0.3-1,0.8-1.3c-0.1,0-0.1,0-0.2,0.1c-0.1,0.1-0.2,0.1-0.3,0.2L5.8,5.9C5.9,6.1,6,6.3,6.1,6.5
	C5.8,6,5.2,5.6,4.6,5.6C4,5.6,3.4,5.9,3.1,6.4c0,0-0.1,0.1-0.1,0.1c0-0.1,0-0.2,0.1-0.3C2.6,6.3,2,6.5,1.7,6.6c0,0,0,0,0,0
	C1.8,6.7,2.4,6.9,2.3,7L1.7,6.8c0,0.2,0.1,0.7,0.1,0.7C2,7.6,2.4,7.6,2.6,7.6L1.5,7.7l-0.1,0c0,0,0.1-0.1,0.2-0.2
	c0.1-0.1,0-0.5-0.1-0.8L1.4,6.7c0.5-0.5,1.2-0.9,2.2-1.1C3.4,5.7,3.4,5.8,3.3,5.9C3.6,5.5,4,5.3,4.6,5.3z"/>
<path id="XMLID_89_" class="st0" d="M7.8,5.2c0-0.1-0.2-0.3-0.3-0.3L7,5.2c0,0,0,0-0.1,0l0,0C7.1,5.2,7.4,5.2,7.8,5.2 M7.5,5
	c0.1,0,0.1,0.1,0.2,0.2l0,0C7.5,5.1,7.4,5.1,7.2,5.1C7.3,5.1,7.4,5,7.5,5z M10.7,4.9c0.5-0.1,0.9-0.1,1.1-0.2c0.3-0.1,0.1-0.2-1-0.4
	L10.7,4.9z M10.5,5.1c-0.4,0-0.8,0-1.1,0c0.3,0,0.7-0.1,1.2-0.2l0.1-0.6c-0.4-0.1-1.9-0.1-2.3,0.1L6.8,5.2c-0.2,0-0.4,0-0.5-0.1
	c0,0,0,0,0,0l1.8-0.9c1.5-0.3,3.3-0.2,5.2,0.5c0,0,0,0,0.1,0C12.6,4.9,11.5,5,10.5,5.1L10.5,5.1z"/>
<polygon id="XMLID_88_" class="st0" points="0.2,12.1 16,10.4 16,11 "/>
<polygon id="XMLID_87_" class="st1" points="16,7.1 0.2,8.8 0.2,8.2 "/>
<g id="XMLID_70_">
	<path id="XMLID_85_" class="st2" d="M0.7,10.1L2.6,10l0,0.4l-2,0.2c-0.2,0-0.3,0-0.4-0.1C0.1,10.4,0,10.3,0,10.2l0-0.7
		c0-0.1,0.1-0.3,0.2-0.4C0.3,9,0.5,9,0.6,8.9l1.9-0.2l0,0.4L0.7,9.3c0,0-0.1,0-0.1,0.1c0,0,0,0.1,0,0.1l0,0.5c0,0,0,0.1,0,0.1
		C0.7,10.1,0.7,10.2,0.7,10.1z"/>
	<path id="XMLID_82_" class="st2" d="M5.2,9.1l0,0.6c0,0.1,0,0.2-0.1,0.3c-0.1,0.1-0.2,0.1-0.4,0.2l-1.3,0.1c-0.2,0-0.3,0-0.4-0.1
		C2.9,10.1,2.8,10,2.8,9.9l0-0.6c0-0.1,0-0.2,0.1-0.3C3.1,9,3.2,8.9,3.3,8.9l1.3-0.1c0.1,0,0.3,0,0.4,0.1C5.1,8.9,5.2,9,5.2,9.1z
		 M4.7,9.7l0-0.5c0,0,0-0.1,0-0.1c0,0-0.1,0-0.1,0L3.4,9.2c0,0-0.1,0-0.1,0c0,0,0,0.1,0,0.1l0,0.5c0,0,0,0.1,0,0.1c0,0,0.1,0,0.1,0
		l1.1-0.1C4.6,9.8,4.6,9.8,4.7,9.7C4.7,9.7,4.7,9.7,4.7,9.7z"/>
	<path id="XMLID_80_" class="st2" d="M6.1,9.6l1.6-0.2l0,0.3L6,10c-0.2,0-0.3,0-0.4-0.1C5.5,9.8,5.4,9.8,5.4,9.6l0-0.6
		c0-0.1,0-0.2,0.1-0.3C5.7,8.7,5.8,8.6,6,8.6l1.6-0.2l0,0.3L6.1,9C6,9,6,9,6,9c0,0,0,0.1,0,0.1l0,0.5C5.9,9.6,5.9,9.6,6.1,9.6
		C6,9.6,6,9.6,6.1,9.6z"/>
	<path id="XMLID_78_" class="st2" d="M7.9,8.4l0.5-0.1l0,0.5l0.4,0l0.7-0.6l0.7-0.1L9.3,9l0.9,0.6L9.5,9.6L8.8,9.2l-0.4,0l0,0.5
		L7.9,9.8L7.9,8.4z"/>
	<path id="XMLID_75_" class="st2" d="M10.3,8.1L11.9,8c0.2,0,0.3,0,0.4,0.1c0.1,0.1,0.2,0.2,0.2,0.3l0,0c0,0.1-0.1,0.2-0.1,0.3
		c-0.1,0.1-0.2,0.2-0.4,0.2L10.8,9l0,0.4l-0.5,0.1L10.3,8.1z M11.9,8.3l-1,0.1l0,0.3l1.1-0.1c0,0,0.1,0,0.1,0c0,0,0,0,0-0.1l0,0
		c0,0,0-0.1,0-0.1C11.9,8.3,11.9,8.3,11.9,8.3z"/>
	<path id="XMLID_73_" class="st2" d="M13.2,7.8l0,1.4l-0.5,0.1l0-1.4L13.2,7.8z"/>
	<path id="XMLID_71_" class="st2" d="M15.7,7.9L14.8,8l0,1l-0.5,0.1l0-1l-0.9,0.1l0-0.3l2.2-0.2L15.7,7.9z"/>
</g>
<g id="XMLID_54_">
	<path id="XMLID_68_" class="st3" d="M5.4,11.1l-0.6,0.1c-0.1,0-0.1,0-0.2,0c0,0-0.1-0.1-0.1-0.2l0-0.3c0-0.1,0-0.1,0.1-0.2
		c0,0,0.1-0.1,0.2-0.1l0.9-0.1l0,0.2l-0.8,0.1c0,0,0,0-0.1,0c0,0,0,0,0,0.1l0,0.3c0,0,0,0,0,0c0,0,0,0,0,0l0.6-0.1l0-0.1l-0.6,0.1
		l0-0.2l0.8-0.1l0,0.5L5.4,11.1L5.4,11.1L5.4,11.1z"/>
	<path id="XMLID_65_" class="st3" d="M6.4,10.3L6.8,11l-0.2,0l-0.1-0.1l-0.5,0L6,11.1l-0.2,0l0.5-0.7L6.4,10.3z M6.3,10.6l-0.1,0.2
		l0.3,0L6.3,10.6z"/>
	<path id="XMLID_62_" class="st3" d="M7.6,10.2c0.1,0,0.1,0,0.2,0c0,0,0.1,0.1,0.1,0.2l0,0c0,0.1,0,0.1-0.1,0.1c0,0-0.1,0.1-0.1,0.1
		l0.2,0.2l-0.2,0l-0.2-0.2l-0.3,0l0,0.2l-0.2,0l0-0.7L7.6,10.2z M7.6,10.4l-0.4,0l0,0.1l0.4,0c0,0,0,0,0,0
		C7.6,10.5,7.6,10.5,7.6,10.4L7.6,10.4C7.6,10.4,7.6,10.4,7.6,10.4C7.6,10.4,7.6,10.4,7.6,10.4z"/>
	<path id="XMLID_59_" class="st3" d="M8.5,10.1l0.4,0.6l-0.2,0l-0.1-0.1l-0.5,0l-0.1,0.1l-0.2,0l0.5-0.7L8.5,10.1z M8.4,10.3
		l-0.1,0.2l0.3,0L8.4,10.3z"/>
	<path id="XMLID_57_" class="st3" d="M9.7,10.7l-0.5,0.1c-0.1,0-0.1,0-0.2,0c0,0-0.1-0.1-0.1-0.1l0-0.3c0-0.1,0-0.1,0.1-0.2
		c0,0,0.1-0.1,0.2-0.1L9.9,10l0,0.2l-0.7,0.1c0,0,0,0,0,0c0,0,0,0,0,0l0,0.2c0,0,0,0,0,0c0,0,0,0,0,0l0.5-0.1l0-0.1l-0.5,0.1l0-0.2
		l0.7-0.1l0,0.4L9.7,10.7L9.7,10.7L9.7,10.7z"/>
	<path id="XMLID_55_" class="st3" d="M10.9,10.3l-0.6,0.1l0,0.1L10.9,10.3l0,0.3l-0.9,0.1l0-0.7L11,9.9l0,0.2l-0.7,0.1l0,0.1
		l0.6-0.1L10.9,10.3z"/>
</g>
</svg>
