<?xml version="1.0" encoding="utf-8"?>
<!-- Generator: Adobe Illustrator 19.0.0, SVG Export Plug-In . SVG Version: 6.00 Build 0)  -->
<svg version="1.1" id="Layer_1" xmlns="http://www.w3.org/2000/svg" xmlns:xlink="http://www.w3.org/1999/xlink" x="0px" y="0px"
	 viewBox="0 0 183.9 148.5" style="enable-background:new 0 0 183.9 148.5;" xml:space="preserve">
<style type="text/css">
	.st0{fill-rule:evenodd;clip-rule:evenodd;fill:#EC1C24;}
	.st1{fill-rule:evenodd;clip-rule:evenodd;fill:#121212;}
	.st2{fill:#EC1C24;}
	.st3{fill:#121212;}
</style>
<path class="st0" d="M90.5,140.4c-10-7.1-19.5-15-28-23.8l-8.5,0.7c10.1,11,22.3,21.4,36.5,31.2c17.1-11.7,31.1-24.2,42.2-37.7
	l-9.4,0.8C113.6,122.4,102.4,131.9,90.5,140.4"/>
<path class="st1" d="M26.5,25.1c44.3-25.7,88.3-23.6,132.8,0.2c0,2,0.1,4.1,0,6.1c2.4,0.3,4.6,0.6,6.6,0.8c0.1-3.6,0-7.3-0.1-10.9
	c-48.6-27-97.2-29.6-145.8,0c-0.5,9-0.1,17.7,1.1,26.2c2.2-0.6,4.3-1.3,6.5-1.9C26.6,38.8,26.3,31.9,26.5,25.1"/>
<path class="st1" d="M77.2,43.6L77.2,43.6L77.2,43.6L77.2,43.6z M79.1,62.2l-9-10.8l6.6,14.3l43.7-3.8L79.1,62.2z M154.8,38.5
	L154.8,38.5L154.8,38.5z M154.8,38.5L154.8,38.5L154.8,38.5L154.8,38.5z M154.8,38.5L154.8,38.5 M154.8,38.5L154.8,38.5L154.8,38.5z
	 M154.8,38.5L154.8,38.5 M154.8,38.5L154.8,38.5L154.8,38.5L154.8,38.5z M154.8,38.5L154.8,38.5L154.8,38.5L154.8,38.5z M154.8,38.5
	L154.8,38.5 M154.8,38.5L154.8,38.5L154.8,38.5z M154.8,38.5L154.8,38.5L154.8,38.5z M154.8,38.5L154.8,38.5L154.8,38.5z
	 M154.8,38.5L154.8,38.5L154.8,38.5L154.8,38.5 M154.8,38.5L154.8,38.5L154.8,38.5z M154.8,38.5L154.8,38.5L154.8,38.5z M154.8,38.5
	L154.8,38.5L154.8,38.5L154.8,38.5z M154.8,38.5L154.8,38.5 M154.8,38.5L154.8,38.5L154.8,38.5z M154.8,38.5L154.8,38.5L154.8,38.5z
	 M154.8,38.5L154.8,38.5L154.8,38.5z M154.8,38.5L154.8,38.5L154.8,38.5z M154.7,38.5L154.7,38.5 M154.7,38.5L154.7,38.5L154.7,38.5
	z M154.7,38.5L154.7,38.5L154.7,38.5L154.7,38.5z M154.7,38.5L154.7,38.5 M154.7,38.5L154.7,38.5L154.7,38.5L154.7,38.5z
	 M154.7,38.5L154.7,38.5L154.7,38.5z M154.7,38.5L154.7,38.5L154.7,38.5z M154.7,38.5L154.7,38.5 M154.5,38.5L154.5,38.5L154.5,38.5
	L154.5,38.5L154.5,38.5 M154.5,38.5L154.5,38.5L154.5,38.5 M154.6,38.5L154.6,38.5L154.6,38.5L154.6,38.5L154.6,38.5L154.6,38.5
	L154.6,38.5L154.6,38.5L154.6,38.5L154.6,38.5 M154.6,38.5L154.6,38.5L154.6,38.5 M154.7,38.5L154.7,38.5L154.7,38.5z M154.7,38.5
	L154.7,38.5L154.7,38.5z M154.6,38.5L154.6,38.5L154.6,38.5z M154.6,38.5L154.6,38.5L154.6,38.5z M154.6,38.5 M154.6,38.5
	L154.6,38.5L154.6,38.5z M154.6,38.5L154.6,38.5L154.6,38.5z M154.6,38.5L154.6,38.5L154.6,38.5z M154.6,38.5L154.6,38.5L154.6,38.5
	z M154.6,38.5L154.6,38.5L154.6,38.5z M154.6,38.5L154.6,38.5L154.6,38.5z M154.6,38.5L154.6,38.5L154.6,38.5z M154.6,38.5
	L154.6,38.5L154.6,38.5z M154.6,38.5L154.6,38.5L154.6,38.5z M154.6,38.5L154.6,38.5L154.6,38.5z M154.6,38.5L154.6,38.5L154.6,38.5
	z M154.6,38.5L154.6,38.5L154.6,38.5z M154.6,38.5L154.6,38.5L154.6,38.5z M154.6,38.5L154.6,38.5L154.6,38.5z M154.6,38.5
	 M154.6,38.5L154.6,38.5L154.6,38.5z M154.5,38.5L154.5,38.5L154.5,38.5L154.5,38.5z M154.5,38.5L154.5,38.5L154.5,38.5z
	 M154.5,38.5L154.5,38.5L154.5,38.5L154.5,38.5z M154.5,38.5L154.5,38.5L154.5,38.5z M154.5,38.5L154.5,38.5L154.5,38.5z
	 M154.5,38.5L154.5,38.5L154.5,38.5z M154.5,38.5L154.5,38.5L154.5,38.5L154.5,38.5z M154.5,38.5L154.5,38.5L154.5,38.5z
	 M154.5,38.5L154.5,38.5L154.5,38.5z M154.5,38.5L154.5,38.5L154.5,38.5z M86.4,40.4C86.4,40.4,86.5,40.4,86.4,40.4L86.4,40.4z
	 M86.4,40.4C86.4,40.4,86.4,40.4,86.4,40.4C86.4,40.4,86.4,40.4,86.4,40.4z M86.3,40.4C86.3,40.4,86.3,40.4,86.3,40.4
	C86.3,40.4,86.3,40.4,86.3,40.4z M86.3,40.4C86.3,40.4,86.3,40.4,86.3,40.4C86.3,40.4,86.3,40.4,86.3,40.4z M86,40.4
	C86,40.4,86,40.4,86,40.4L86,40.4z M52.2,42.9c4,0,7.7,1.3,10.6,3.6c-1.1-1.2-2.3-2.2-3.7-3c4.2-0.4,8.6-0.7,13.2-0.8
	c1,0.3,2.9,0.5,5.4,0.7l-0.2,0.1c0.6,0,1.2,0,1.9,0c2.7,0.1,5.9,0.2,9.6,0.2l0,0c9.8-0.3,21.2-0.3,31.4-1.2l0,0
	c12-0.8,24.3-2.1,34.7-3.8l0,0l0,0l0,0l0,0l0,0l0,0h0l0,0l0,0l0,0l0,0l0,0h0l0,0l0,0l0,0l0,0l0,0l0,0l0,0l0,0l0,0l0,0l0,0h0l0,0l0,0
	l0,0l0,0l0,0l0,0h0l0,0l0,0l0,0l0,0l0,0l0,0l0,0l0,0l0,0l0,0l0,0l0,0l0,0l0,0l0,0l0,0l0,0l0,0l0,0l0,0l0,0l0,0l0,0l0,0l0,0l0,0l0,0
	l0,0l0,0l0,0l0,0l0,0l0,0l0,0l0,0h0l0,0l0,0l0,0l0,0l0,0c3.9-0.3,3.3-2.6,12.5-1.7c-5.2,7.4,5.9,12.2,2,21.9
	c-0.1-2.5-1.9-7.1-10.9-10.8c0,0,0.1-0.8,1.3-2.3l4.7,0c-0.9-0.9-2.2-3.5-3.6-3.4l-10.4,0.9c-1.6-0.7-3.4-1.2-5.2-1.6
	c2.9,1.1,5.4,2.8,7.4,5.1c-6-3.8-14.9-3.9-20.9-1c-5.1,2.3-8.9,6.6-10.2,11.6c0.3-6.4,4-12,9.4-14.8c-0.6,0.2-1.3,0.4-1.9,0.6
	c-1.4,0.6-2.8,1.3-4,2.1l-58.8,4.9c1.5,2.1,2.6,4.5,3.1,7.1c-3.1-6.5-9.7-10.9-17.4-10.9c-7,0-13.1,3.7-16.5,9.3
	c-0.3,0.5-0.7,1-0.9,1.5c0.2-1.1,0.5-2.1,0.9-3.1c-6.3,0.6-12.6,2.3-16.1,4.5c0,0.1,0,0.1,0,0.2c1,0.6,7.2,3.3,7.1,3.5l-6.9-1.9
	c0.3,2.6,1,8.3,1.4,8.4c1.9,0.7,5.8,0.8,8.9,0.9l-12.7,1l-1.1,0.1c0.4-0.4,1.2-1.1,2.3-2.2c0.8-0.8-0.1-6.1-0.6-8.7l-2.5-0.7
	c5.3-5.7,13.6-9.9,25-12.7c-1,1.1-1.8,2.3-2.4,3.6C41.2,45.8,46.3,42.9,52.2,42.9z"/>
<path class="st0" d="M89.1,42.1c-0.5-1.3-2.1-3.7-3.3-3.2l-5.4,2.5c-0.3,0.1-0.5,0.3-0.7,0.5l-0.2,0C82.1,42.1,85.4,42.1,89.1,42.1
	 M85.9,39.8c0.9,0,1.5,0.9,2.1,2.1l-0.4,0c-1-1.1-2.2-1.5-5.4-0.7C84.1,40.5,84.9,39.8,85.9,39.8z M123.1,39.1
	c5.5-0.8,10.5-1.6,12.9-2.4c3-1.2,0.7-2.6-11.8-4.3L123.1,39.1z M120.5,40.8c-5,0.3-9,0.4-13.1,0.5c3.5-0.6,8.5-1.2,13.4-1.9
	l1.4-7.2c-4.9-0.8-21.6-1.5-26.4,0.9l-18.1,8.8c-2.5-0.2-4.3-0.4-5.4-0.7c0.2,0,0.3,0,0.5,0L94,31.2c17.7-3.7,37.8-1.8,60.4,5.8
	c0.3,0,0.5,0,0.7,0c-10.4,1.7-22.8,3-34.7,3.8L120.5,40.8z"/>
<polygon class="st0" points="2.2,122.1 183.9,102.3 183.9,108.7 "/>
<polygon class="st1" points="183.7,63.4 2.1,83.3 2.1,76.8 "/>
<g>
	<path class="st2" d="M8.2,99.1l21.2-2.3l0,4.6l-22.5,2.4c-2,0.2-3.7-0.1-4.9-1c-1.3-0.9-1.9-2.1-1.9-3.7l0-7.8
		c0-1.6,0.6-2.9,1.9-4.1c1.3-1.1,2.9-1.8,4.9-2l22.3-2.4l0,4.6L8.2,89.6c-0.5,0.1-1,0.3-1.3,0.6c-0.4,0.3-0.5,0.7-0.5,1.2l0,6.3
		c0,0.5,0.2,0.8,0.5,1.1C7.2,99,7.6,99.1,8.2,99.1z"/>
	<path class="st2" d="M59.2,87l0,6.6c0,1.4-0.6,2.5-1.7,3.5c-1.1,1-2.5,1.6-4.2,1.7l-15.1,1.6c-1.8,0.2-3.2-0.1-4.3-0.8
		c-1.1-0.7-1.7-1.8-1.7-3.1l0-6.6c0-1.3,0.6-2.5,1.7-3.5c1.1-1,2.5-1.6,4.3-1.8L53.3,83c1.7-0.2,3.1,0.1,4.2,0.8S59.2,85.6,59.2,87z
		 M53.6,93.5l0-5.3c0-0.4-0.1-0.6-0.4-0.8c-0.3-0.2-0.6-0.3-1-0.2l-12.8,1.4c-0.4,0-0.7,0.2-1,0.5c-0.3,0.3-0.4,0.6-0.4,0.9l0,5.3
		c0,0.4,0.1,0.6,0.4,0.8c0.3,0.2,0.6,0.3,1,0.2l12.8-1.4c0.4,0,0.7-0.2,1-0.5C53.4,94.2,53.6,93.9,53.6,93.5z"/>
	<path class="st2" d="M69.5,93l18.1-1.9l0,4l-19.2,2.1c-1.8,0.2-3.2-0.1-4.3-0.8c-1.1-0.7-1.7-1.8-1.7-3.1l0-6.6
		c0-1.3,0.6-2.5,1.7-3.5c1.1-1,2.5-1.6,4.3-1.8l18.9-2l0,4l-17.8,1.9c-0.4,0-0.7,0.2-1,0.5c-0.3,0.3-0.4,0.6-0.4,0.9l0,5.3
		c0,0.4,0.1,0.6,0.4,0.8C68.8,93,69.1,93.1,69.5,93z"/>
	<path class="st2" d="M90.8,78.9l5.6-0.6l0,6.1l4.9-0.5l7.8-7l7.8-0.8l-10.4,9.2l10.7,6.6l-7.8,0.8l-8-4.9l-5,0.5l0,5.8l-5.6,0.6
		L90.8,78.9z"/>
	<path class="st2" d="M118.8,75.9l18.6-2c1.8-0.2,3.3,0.1,4.6,1c1.2,0.9,1.9,2.1,1.9,3.5l0,0.5c0,1.5-0.6,2.8-1.7,3.9
		c-1.1,1.1-2.6,1.7-4.4,1.9l-13.3,1.4l0,4.9l-5.6,0.6L118.8,75.9z M136.6,78l-12.1,1.3l0,3l12.1-1.3c0.5-0.1,0.9-0.2,1.2-0.5
		c0.3-0.3,0.5-0.6,0.5-0.9l0-0.5c0-0.4-0.2-0.7-0.5-0.9C137.4,78,137,78,136.6,78z"/>
	<path class="st2" d="M152.4,72.3l0,15.8l-5.6,0.6l0-15.8L152.4,72.3z"/>
	<path class="st2" d="M180.9,73.2l-10.1,1.1l0,11.8l-5.7,0.6l0-11.8L154.9,76l0-4l25.9-2.8L180.9,73.2z"/>
</g>
<g>
	<path class="st3" d="M61.6,110.5l-7,0.7c-0.9,0.1-1.5-0.1-2.1-0.5c-0.5-0.4-0.8-1.1-0.8-1.9l0.1-3.9c0-0.8,0.3-1.5,0.9-2
		c0.6-0.6,1.3-0.9,2.1-1l10-1l-0.1,2.3l-9.4,1c-0.2,0-0.4,0.1-0.6,0.3c-0.2,0.2-0.2,0.4-0.2,0.6l-0.1,3.1c0,0.2,0.1,0.4,0.2,0.5
		c0.2,0.1,0.3,0.2,0.6,0.2l7.1-0.7l0-1.3l-6.6,0.7l0.1-2.1l9.1-1l-0.1,5.7l-2.3,0.2l-0.3-0.3L61.6,110.5z"/>
	<path class="st3" d="M73.4,101.3l4.9,7.4l-2.8,0.3l-0.9-1.4l-5.3,0.6l-0.9,1.5l-2.8,0.3l5.3-8.4L73.4,101.3z M72.1,103.7l-1.6,2.6
		l3-0.3L72.1,103.7z"/>
	<path class="st3" d="M87.2,99.9c0.8-0.1,1.5,0.1,2,0.5c0.5,0.4,0.8,1,0.7,1.8l0,0.2c0,0.6-0.2,1.1-0.6,1.6
		c-0.4,0.5-0.9,0.8-1.5,1.1l2.1,2.4l-2.7,0.3l-1.9-2.3l-3.7,0.4l-0.1,2.5l-2.4,0.3l0.2-7.9L87.2,99.9z M86.8,101.9l-5.2,0.5l0,1.5
		l5.2-0.5c0.2,0,0.4-0.1,0.5-0.2c0.1-0.1,0.2-0.3,0.2-0.5l0-0.2c0-0.2-0.1-0.3-0.2-0.5C87.2,102,87.1,101.9,86.8,101.9z"/>
	<path class="st3" d="M97.9,98.8l4.9,7.4l-2.8,0.3l-0.9-1.4l-5.3,0.6l-0.9,1.5l-2.8,0.3l5.3-8.4L97.9,98.8z M96.6,101.1l-1.6,2.6
		l3-0.3L96.6,101.1z"/>
	<path class="st3" d="M111.5,105.2l-5.9,0.6c-0.7,0.1-1.3-0.1-1.8-0.5c-0.5-0.4-0.7-0.9-0.7-1.6l0.1-3.3c0-0.7,0.3-1.3,0.7-1.7
		c0.5-0.5,1.1-0.8,1.8-0.8l8.5-0.9l0,2l-8,0.8c-0.2,0-0.3,0.1-0.4,0.2c-0.1,0.1-0.2,0.3-0.2,0.5l-0.1,2.6c0,0.2,0,0.3,0.2,0.4
		c0.1,0.1,0.3,0.2,0.4,0.1l5.9-0.6l0-1l-5.6,0.6l0-1.8l7.9-0.8l-0.1,4.9l-2,0.2l-0.2-0.3L111.5,105.2z"/>
	<path class="st3" d="M125.8,100.8l-7.4,0.8l0,1l7.7-0.8l0,2l-10.1,1.1l0.2-7.9l10.1-1.1l0,2l-7.7,0.8l0,1l7.4-0.8L125.8,100.8z"/>
</g>
</svg>
